<?xml version="1.0" encoding="UTF-8"?>
<svg id="Layer_2" data-name="Layer 2" xmlns="http://www.w3.org/2000/svg" viewBox="0 0 190.69 48.5">
  <defs>
    <style>
      .cls-1 {
        fill: #154380;
      }

      .cls-1, .cls-2, .cls-3 {
        fill-rule: evenodd;
      }

      .cls-4, .cls-3 {
        fill: #d42d43;
      }

      .cls-5, .cls-2 {
        fill: #fff;
      }
    </style>
  </defs>
  <g id="Layer_1-2" data-name="Layer 1">
    <g>
      <rect class="cls-4" x="50.87" y="14.87" width="78.66" height="18.77"/>
      <path class="cls-1" d="M90.19,0c13.39,0,24.25,10.86,24.25,24.25s-10.86,24.25-24.25,24.25-24.25-10.86-24.25-24.25S76.8,0,90.19,0"/>
      <path class="cls-2" d="M89.85,3.88c11.72,0,21.22,9.11,21.22,20.35v.17s-2.17-1.15-2.17-1.15c-.53-9.65-8.86-17.31-19.05-17.31-4.09,0-7.87,1.23-10.98,3.33l1.97,1.96-7.42,2.47,2.47-7.4,1.48,1.47c3.5-2.45,7.82-3.89,12.48-3.89"/>
      <path class="cls-2" d="M90.53,44.62c-11.72,0-21.22-9.11-21.22-20.35v-.17s2.17,1.15,2.17,1.15c.53,9.65,8.86,17.31,19.05,17.31,4.09,0,7.87-1.23,10.98-3.33l-1.97-1.96,7.42-2.47-2.47,7.4-1.48-1.47c-3.5,2.45-7.82,3.89-12.48,3.89"/>
      <polygon class="cls-3" points="79.69 31.73 66.52 24.21 79.69 16.77 82.72 13.74 90.23 .58 97.67 13.74 100.7 16.77 113.87 24.21 100.7 31.73 97.67 34.76 90.23 47.92 82.72 34.76 79.69 31.73"/>
      <path class="cls-5" d="M99.46,14.67h.15c0,.55-.02,1.11-.03,1.66,0,.55,0,1.1,0,1.66h0s0,0,0,0c0,.07,0,.14-.03.21-.02.05-.04.1-.07.14-.02.03-.05.06-.09.08-.05.03-.1.05-.16.06-.06.01-.12.02-.18.02h0c-.16,0-.33,0-.49,0-.06,0-.13,0-.19,0-2.23,0-4.46,0-6.69,0s-4.48,0-6.72,0c-.35,0-.7.02-1.05.02h0c-.23,0-.45.07-.67.17h0c-.18.08-.32.18-.43.31-.11.13-.19.28-.24.47h0c-.06.25-.1.5-.1.76,0,0,0,.02,0,.03h0c0,.23,0,.47,0,.7,0,.37,0,.74,0,1.11,0,2.06,0,4.12,0,6.18h0c0,.27,0,.54.05.8.02.15.06.28.12.39.08.18.2.32.36.44.16.12.38.21.65.26h0c.33.06.68.07,1.03.1.06,0,.13,0,.19,0,.1,0,.21,0,.33,0h13.27c.25,0,.51,0,.76.02h0s0,0,0,0c.11,0,.2.05.27.13.07.07.1.17.11.27h0c0,.23,0,.46.01.68h0c0,.88.01,1.76.02,2.64h0s0,.02,0,.02c0,.05-.02.11-.04.15-.03.07-.08.13-.14.18-.06.04-.13.07-.2.09h-.02s-.02,0-.02,0c-.3,0-.6-.01-.9-.01h0c-2.24,0-4.48,0-6.73,0s-4.46,0-6.69,0c-.45,0-.91-.01-1.36-.03h0c-.58-.02-1.13-.14-1.67-.31h0c-.69-.22-1.27-.57-1.73-1.04-.46-.47-.79-1.06-1-1.75h0c-.19-.65-.26-1.31-.31-1.96h0c0-.1,0-.19,0-.28,0-.06,0-.12,0-.18,0-.67,0-1.34,0-2.01,0-1.22,0-2.43,0-3.65,0-1.1,0-2.21,0-3.31,0,0,0-.01,0-.02,0-.79.09-1.57.3-2.33.09-.32.21-.64.37-.94h0s0,0,0,0c.22-.42.5-.78.83-1.08.34-.3.73-.54,1.16-.72h0c.67-.27,1.38-.42,2.1-.46.37-.02.73-.02,1.1-.02.04,0,.08,0,.12,0,4.52,0,9.05,0,13.57,0,.3,0,.6-.02.9-.02v.15s-.01-.15-.01-.15c.02,0,.05,0,.07,0,.04,0,.07,0,.1.01.03,0,.05.01.08.03.04.02.08.05.1.1.02.04.03.09.03.13,0,.07-.02.14-.05.21l-.14-.07h.15s-.15,0-.15,0l-.14-.07s.03-.07.02-.07h.02-.02s0,0,0,0h.02-.02s.06,0,.06,0l-.05.04s-.01-.02-.01-.02h.06s-.05.02-.05.02l.05-.04-.03.05s0,0-.01-.01l.05-.04-.03.05.02-.02v.03s-.02,0-.02,0l.02-.02v.03s-.01,0-.01,0c0,0-.02,0-.04,0-.01,0-.03,0-.04,0h0s0,0,0,0c-.3,0-.6.02-.91.02-4.52,0-9.05,0-13.57,0-.04,0-.08,0-.12,0-.36,0-.72,0-1.08.02-.69.04-1.36.18-2,.44h0c-.41.17-.77.39-1.07.66-.31.27-.56.6-.77.99h0c-.14.28-.26.58-.34.88-.2.73-.29,1.49-.29,2.25v.02c0,1.1,0,2.21,0,3.31,0,1.22,0,2.43,0,3.65,0,.67,0,1.34,0,2.01,0,.06,0,.12,0,.18,0,.09,0,.18,0,.26h0c.04.65.11,1.29.3,1.9h0c.2.65.5,1.19.92,1.62.42.43.95.75,1.6.96h0c.52.17,1.04.28,1.58.3h0c.45.01.9.03,1.35.03,2.23,0,4.46,0,6.69,0s4.48,0,6.73,0h0c.3,0,.61,0,.91.01v.15s-.04-.15-.04-.15c.03,0,.05-.02.07-.03.03-.01.04-.03.06-.05.01-.02.02-.04.03-.08l.15.02h-.15c0-.88-.01-1.76-.02-2.64h0c0-.23,0-.45-.01-.68h0s-.01-.06-.03-.08c-.02-.02-.03-.02-.05-.03h0c-.25,0-.5-.02-.75-.02h-13.27c-.11,0-.21,0-.33,0-.07,0-.14,0-.21,0-.35-.02-.71-.03-1.07-.1h0c-.21-.04-.39-.1-.55-.18-.24-.12-.43-.28-.57-.48-.14-.2-.22-.43-.26-.69-.05-.29-.06-.57-.06-.85h0c0-2.06,0-4.12,0-6.18,0-.37,0-.74,0-1.11,0-.23,0-.46,0-.7h0s0-.02,0-.03c0-.28.04-.56.1-.83h0c.06-.23.16-.43.3-.6.14-.17.32-.3.53-.39h0c.24-.11.5-.19.79-.2h0c.35,0,.7-.02,1.06-.02,2.24,0,4.48,0,6.72,0s4.46,0,6.69,0c.06,0,.13,0,.19,0,.16,0,.32,0,.48,0h0s0,0,0,0c.06,0,.11,0,.14-.02.02,0,.04-.01.04-.02,0,0,.01,0,.01-.01,0,0,.01-.02.02-.05,0-.02.01-.06.01-.11h0c0-.55,0-1.1,0-1.66,0-.55.02-1.11.03-1.66v-.03s.01-.03.01-.03l.14.07Z"/>
      <path class="cls-5" d="M99.46,14.67c0,.55-.02,1.1-.03,1.66,0,.55,0,1.11,0,1.66,0,.26-.1.35-.38.35-.23,0-.45,0-.68,0-4.47,0-8.94,0-13.42,0-.35,0-.7.02-1.05.02-.26,0-.5.08-.73.19-.38.18-.65.47-.75.89-.07.27-.1.54-.1.82,0,.6,0,1.21,0,1.81,0,2.06,0,4.12,0,6.18,0,.28,0,.55.05.82.1.63.47,1.07,1.26,1.21.34.06.7.08,1.05.1.17.01.35,0,.53,0h13.27c.25,0,.5,0,.75.02.12,0,.22.11.23.25,0,.23,0,.45.01.68,0,.88.01,1.76.02,2.64-.02.16-.12.25-.27.29-.3,0-.6-.01-.9-.01-4.47,0-8.95,0-13.42,0-.45,0-.91-.01-1.36-.03-.56-.02-1.1-.14-1.62-.31-1.34-.43-2.21-1.34-2.62-2.69-.19-.63-.26-1.28-.3-1.93-.01-.15,0-.3,0-.45,0-2.99,0-5.98,0-8.97,0-.78.09-1.55.3-2.31.09-.31.21-.62.36-.91.42-.81,1.07-1.38,1.92-1.73.66-.27,1.34-.41,2.05-.45.4-.02.81-.02,1.21-.02,4.52,0,9.05,0,13.57,0,.3,0,.6-.02.9-.02.2-.02.27.06.18.25"/>
      <path class="cls-5" d="M7.18,33.67v-3.7h14.11c.88,0,1.53-.13,1.94-.39.41-.26.61-.66.61-1.19v-.87h-14.03c-1.23,0-2.26-.11-3.1-.33-.84-.22-1.52-.55-2.03-.98-.51-.43-.89-.97-1.12-1.61-.24-.64-.35-1.37-.35-2.21v-7.58h4.04v7.69c0,.53.2.92.61,1.19.41.26,1.05.4,1.94.4h14.05v-9.27h4.03v13.74c0,.83-.12,1.57-.35,2.21-.24.64-.61,1.17-1.12,1.61-.51.43-1.19.76-2.04.98-.85.22-1.88.33-3.09.33H7.18Z"/>
      <path class="cls-5" d="M35.47,33.67v-12.46c0-2.06.64-3.64,1.91-4.75,1.27-1.11,3.21-1.66,5.81-1.66h9.23c2.6,0,4.54.55,5.81,1.66,1.27,1.11,1.91,2.69,1.91,4.75v12.46h-3.93v-6.03h-16.82v6.03h-3.93ZM39.4,24.2h16.82v-2.99c0-.46-.06-.86-.18-1.19-.12-.33-.33-.61-.62-.84-.3-.23-.69-.4-1.18-.51-.49-.11-1.1-.17-1.84-.17h-9.18c-.74,0-1.35.05-1.84.17-.49.11-.88.28-1.18.51-.3.23-.51.51-.62.84-.12.33-.18.73-.18,1.19v2.99Z"/>
      <polygon class="cls-5" points="121.27 33.67 121.27 14.81 125.2 14.81 125.2 20.86 142.04 20.86 142.04 14.81 145.97 14.81 145.97 33.67 142.04 33.67 142.04 24.3 125.2 24.3 125.2 33.67 121.27 33.67"/>
      <polygon class="cls-5" points="163.15 33.67 163.15 18.51 152.78 18.51 152.78 14.81 177.45 14.81 177.45 18.51 167.08 18.51 167.08 33.67 163.15 33.67"/>
      <polygon class="cls-5" points="4.61 9.14 3.22 9.14 5.2 4.48 5.39 4.01 0 4.01 .65 2.5 12.89 2.5 12.25 4.01 6.8 4.01 4.61 9.14"/>
      <polygon class="cls-5" points="24.09 9.14 22.69 9.14 23.83 6.46 14.34 6.46 13.2 9.14 11.81 9.14 14.63 2.51 16.03 2.5 14.95 5.03 24.44 5.03 25.52 2.5 26.92 2.51 24.09 9.14"/>
      <polygon class="cls-5" points="37.91 9.14 25.67 9.14 28.5 2.5 40.74 2.5 40.09 4.01 29.25 4.01 28.81 5.03 39.66 5.03 39.05 6.46 28.21 6.46 27.77 7.48 38.61 7.48 37.91 9.14"/>
      <path class="cls-5" d="M128.25,40.68l.58-1.32h7.46l-1.03,2.34c-.45,1.02-1.01,1.53-1.68,1.53h-9.9c-.63,0-.72-.51-.28-1.53l1.5-3.43c.39-.88.89-1.32,1.53-1.32h10.91l-.62,1.42h-10.11c-.24,0-.44.19-.6.54l-.53,1.22-.53,1.22c0,.26.06.39.19.39h8.39l.53-.39.29-.67h-6.1Z"/>
      <path class="cls-5" d="M147.99,43.23h-1.41l.05-2.52h-8.07l-1.11,2.52h-1.33l2.75-6.28h10.95c.61,0,.73.43.36,1.28l-.46,1.05c-.42.95-.93,1.42-1.54,1.42h-.11l-.08,2.52ZM148.47,38.4h-8.9l-.41.93h8.87c.26-.1.43-.25.53-.44.09-.19.06-.35-.09-.49"/>
      <path class="cls-5" d="M161.18,41.35l1.06-2.43c.07-.17.08-.3.02-.38-.06-.08-.15-.13-.26-.17h-8.2c-.24,0-.44.19-.59.54l-1.06,2.43c0,.26.06.39.19.39h8.32c.12-.02.3-.15.52-.39M157.09,43.23h-6.09c-.7,0-.82-.51-.38-1.53l1.49-3.43c.38-.88.93-1.32,1.63-1.32h9.7c.67,0,.81.44.43,1.32l-1.49,3.43c-.44,1.02-1,1.53-1.67,1.53h-3.62Z"/>
      <path class="cls-5" d="M174.4,41.35l1.07-2.43.86-1.97h1.36l-.58,1.32-1.5,3.43c-.45,1.02-1.01,1.53-1.68,1.53h-9.9c-.63,0-.72-.51-.28-1.53l1.5-3.43.58-1.32h1.39l-1.93,4.4c0,.26.04.39.15.39h8.37l.6-.39Z"/>
      <path class="cls-5" d="M188.73,38.4h-8.87l-.42.96h8.9c.25-.12.41-.27.49-.45.08-.18.05-.35-.1-.51M183.78,40.7h-4.93l-1.11,2.52h-1.33l2.75-6.28h10.95c.61,0,.73.43.36,1.28l-.46,1.05c-.42.95-.93,1.42-1.54,1.42h-4.69Z"/>
    </g>
  </g>
</svg>